<?xml version="1.0" standalone="no"?>
<!DOCTYPE svg PUBLIC "-//W3C//DTD SVG 20010904//EN"
 "http://www.w3.org/TR/2001/REC-SVG-20010904/DTD/svg10.dtd">
<svg version="1.0" xmlns="http://www.w3.org/2000/svg"
 width="280.000000pt" height="280.000000pt" viewBox="0 0 280.000000 280.000000"
 preserveAspectRatio="xMidYMid meet">
<metadata>
Created by potrace 1.14, written by Peter Selinger 2001-2017
</metadata>
<g transform="translate(0.000000,280.000000) scale(0.100000,-0.100000)"
fill="#000000" stroke="none">
<path d="M1884 2651 c4 -6 2 -11 -4 -11 -6 0 -8 -4 -5 -10 6 -9 -8 -14 -27
-11 -5 0 -8 -3 -8 -9 0 -5 -10 -10 -22 -10 -19 0 -20 -2 -8 -10 12 -8 12 -10
1 -10 -8 0 -12 -3 -8 -6 3 -4 -14 -27 -38 -51 -45 -45 -56 -61 -32 -47 6 4 4
-2 -5 -13 -10 -11 -18 -34 -18 -52 0 -18 -3 -30 -7 -28 -16 7 -48 -39 -47 -68
1 -17 -7 -41 -18 -55 -11 -13 -16 -26 -11 -27 5 -2 7 -34 6 -72 -2 -51 1 -74
12 -85 19 -19 19 -42 0 -50 -9 -3 -12 -12 -8 -22 4 -10 2 -15 -3 -11 -7 4 -9
-6 -6 -25 3 -21 1 -29 -7 -24 -10 6 -15 -6 -12 -26 0 -5 -8 -17 -20 -29 -14
-14 -17 -24 -10 -33 6 -7 6 -17 1 -26 -6 -8 -10 -10 -10 -5 0 6 -5 2 -11 -8
-7 -13 -7 -22 0 -31 8 -10 6 -19 -8 -34 -10 -12 -22 -18 -27 -14 -4 4 -3 0 4
-10 10 -12 10 -18 1 -23 -8 -6 -7 -10 2 -16 11 -7 9 -10 -8 -15 -13 -4 -21
-10 -18 -14 3 -4 -2 -11 -11 -14 -9 -4 -14 -13 -10 -21 3 -8 1 -15 -4 -15 -5
0 -7 -6 -4 -14 9 -22 -14 -28 -34 -9 -10 10 -27 23 -38 29 -11 7 -19 22 -18
38 0 14 -3 26 -8 26 -4 0 -5 7 -1 15 3 10 0 15 -8 13 -10 -2 -13 7 -12 30 1
21 -3 32 -12 32 -7 0 -16 7 -19 16 -3 8 -2 13 2 10 4 -2 8 13 7 35 0 21 -4 39
-8 39 -5 0 -5 5 -2 11 13 20 11 89 -2 89 -14 0 -15 5 -16 60 0 19 -8 40 -16
47 -9 7 -11 13 -6 13 6 0 3 5 -5 10 -12 8 -12 10 -1 10 11 0 11 3 0 17 -12 14
-12 16 1 9 8 -4 7 -1 -4 8 -21 17 -36 93 -16 81 7 -4 4 4 -5 19 -10 14 -21 26
-25 26 -5 0 -5 13 0 30 5 17 5 32 0 35 -5 3 -8 11 -6 18 1 7 1 9 -1 5 -12 -21
-20 -3 -17 42 1 29 -2 48 -7 44 -5 -3 -9 0 -9 6 0 15 -26 41 -33 34 -3 -3 -4
6 -3 21 3 19 0 25 -10 21 -8 -3 -14 -2 -14 2 0 4 -9 8 -20 8 -11 0 -20 -4 -20
-9 0 -4 -4 -5 -10 -2 -5 3 -10 -1 -10 -9 0 -9 -7 -16 -15 -16 -8 0 -15 -4 -15
-10 0 -11 -36 -50 -47 -50 -4 0 -8 -7 -9 -16 -2 -9 -8 -20 -14 -24 -9 -6 -9
-9 1 -13 10 -4 8 -6 -4 -6 -10 -1 -15 -5 -12 -11 3 -5 0 -10 -7 -10 -10 0 -10
-2 1 -9 9 -6 10 -11 2 -15 -6 -4 -11 -12 -11 -17 0 -6 4 -7 10 -4 6 4 7 -1 3
-12 -11 -32 -14 -34 -29 -22 -11 9 -14 9 -14 0 0 -7 -5 -9 -12 -5 -10 6 -10 4
0 -8 9 -12 10 -18 2 -23 -8 -5 -8 -10 0 -20 8 -10 6 -15 -9 -20 -15 -5 -19
-13 -16 -42 3 -28 -1 -36 -16 -40 -10 -3 -19 -12 -19 -20 0 -8 -5 -11 -11 -7
-9 5 -10 -1 -5 -20 5 -20 4 -26 -5 -20 -7 4 -9 3 -6 -4 8 -12 -2 -44 -12 -38
-9 6 -8 -51 1 -60 4 -4 3 -14 -2 -24 -5 -10 -7 -20 -4 -22 3 -3 -2 -8 -11 -11
-8 -4 -15 -2 -15 4 0 6 -6 4 -14 -4 -10 -10 -13 -30 -10 -70 4 -50 2 -56 -17
-62 -15 -5 -18 -10 -10 -15 9 -5 8 -12 -5 -25 -20 -19 -27 -75 -10 -75 6 -1 2
-9 -10 -18 -15 -13 -21 -28 -20 -60 1 -28 -3 -42 -11 -42 -7 0 -12 -6 -11 -12
2 -7 -3 -12 -11 -10 -11 2 -12 0 -3 -10 6 -8 9 -28 7 -46 -2 -18 0 -30 5 -27
5 3 6 -7 1 -22 -4 -16 -6 -39 -5 -53 1 -15 -6 -30 -18 -39 -15 -10 -17 -15 -7
-22 10 -6 10 -11 1 -22 -7 -7 -10 -16 -7 -19 3 -2 -6 -15 -20 -28 -14 -13 -25
-34 -25 -47 0 -14 -7 -31 -15 -40 -11 -11 -13 -19 -5 -27 5 -7 7 -16 3 -20
-16 -15 -8 -91 10 -104 9 -7 14 -18 11 -24 -9 -15 15 -27 43 -22 15 3 26 -1
29 -11 3 -8 10 -12 15 -9 5 3 9 1 9 -5 0 -7 8 -7 24 -1 15 5 27 5 35 -3 8 -8
11 -8 11 0 0 7 12 9 30 7 21 -4 30 -1 30 9 0 9 10 13 28 12 15 -1 34 4 40 12
7 7 9 13 5 13 -4 0 1 7 11 15 11 8 16 15 10 15 -5 0 -2 5 6 10 11 7 11 10 2
10 -8 0 -10 5 -6 12 12 18 14 59 3 53 -10 -7 -12 8 -2 19 11 11 12 36 1 36 -7
0 -7 4 0 13 9 10 7 20 -6 38 -20 29 -24 47 -11 55 5 3 6 11 2 17 -12 20 -14
47 -2 47 6 0 7 5 2 13 -13 21 -9 61 10 81 20 23 22 36 5 36 -9 0 -8 4 2 10 10
6 11 10 3 10 -7 0 -13 5 -13 11 0 5 4 8 8 5 10 -6 10 37 0 45 -5 3 0 16 11 28
16 18 19 35 17 86 -2 36 0 62 4 60 5 -3 6 4 3 15 -3 12 0 20 7 20 8 0 11 14 8
45 -2 25 0 45 3 45 3 0 4 11 1 25 -3 18 2 31 17 44 21 18 30 37 12 26 -12 -7
-9 45 3 64 6 8 5 12 0 8 -5 -3 -10 12 -10 34 -1 34 4 43 26 41 3 0 6 11 6 24
1 13 -2 21 -8 18 -6 -4 -5 3 1 14 6 12 17 25 25 29 20 12 38 51 26 58 -14 9
11 33 30 30 8 -2 18 -4 23 -4 4 -1 7 -8 7 -17 0 -13 3 -14 14 -5 12 10 17 8
25 -8 8 -14 8 -20 0 -23 -8 -3 -6 -10 5 -21 12 -12 13 -17 4 -17 -7 0 -2 -7
10 -16 12 -8 20 -20 16 -25 -3 -6 2 -16 12 -23 12 -9 14 -15 5 -20 -8 -5 -5
-16 10 -37 13 -19 20 -41 18 -64 -3 -25 2 -39 20 -54 13 -12 18 -21 12 -21 -9
0 -12 -13 -8 -45 2 -25 0 -48 -5 -51 -5 -3 3 -17 17 -32 14 -14 22 -28 18 -31
-4 -3 -9 -13 -11 -21 -2 -8 0 -12 4 -8 14 14 33 -25 22 -46 -7 -13 -7 -16 1
-12 6 4 9 -4 6 -24 -2 -21 1 -30 11 -30 8 0 14 -5 14 -11 0 -5 -6 -7 -12 -4
-7 4 -3 -2 9 -13 12 -11 19 -22 16 -26 -4 -3 1 -6 11 -6 9 0 14 -4 11 -10 -3
-5 -1 -10 6 -10 6 0 9 -8 6 -20 -3 -11 -2 -18 3 -15 7 4 24 -23 22 -35 0 -3 8
-6 18 -6 10 0 16 4 13 9 -3 5 3 4 14 -1 12 -7 25 -7 34 -1 8 5 9 9 2 9 -8 0
-8 6 0 24 7 13 15 22 18 20 4 -2 10 3 13 12 3 8 10 13 14 10 5 -3 6 8 4 25 -2
17 0 29 7 29 6 0 8 7 4 17 -5 12 -3 14 7 8 8 -5 11 -3 8 6 -3 8 -1 24 3 36 5
14 4 25 -2 29 -7 4 -3 13 9 24 12 11 18 29 17 45 -2 16 2 28 11 32 8 3 14 16
14 29 0 14 6 27 14 30 9 3 13 15 10 29 -3 15 2 25 12 29 9 3 14 13 10 21 -3 8
-1 17 5 21 6 4 6 11 -2 20 -9 11 -8 14 5 14 10 0 15 4 11 9 -6 10 29 34 37 26
2 -3 3 11 2 30 -2 24 2 38 14 44 9 6 14 11 10 11 -4 0 6 13 22 29 17 16 29 33
28 39 -2 5 9 21 24 35 15 14 25 27 22 30 -3 2 2 7 11 10 8 4 15 2 15 -4 0 -6
5 -7 10 -4 6 3 10 2 10 -4 0 -6 6 -8 14 -5 8 3 16 -3 19 -15 3 -12 2 -21 -2
-21 -3 0 -4 -24 -1 -52 3 -32 10 -52 17 -51 7 2 10 -12 9 -37 -2 -29 2 -40 15
-43 20 -6 14 -56 -8 -64 -12 -5 -12 -7 -1 -14 7 -5 8 -9 2 -9 -6 0 -10 -11 -9
-24 2 -14 -3 -27 -11 -30 -18 -7 -20 -172 -3 -178 6 -2 13 -19 15 -38 2 -19 9
-37 14 -38 6 -2 8 -8 4 -13 -3 -5 -2 -9 3 -9 4 0 8 -11 8 -25 0 -14 -2 -25 -5
-25 -3 0 -6 -9 -6 -20 0 -11 4 -20 9 -20 5 0 4 -6 -2 -13 -6 -8 -8 -17 -4 -21
9 -9 11 -46 2 -46 -4 0 -5 -9 -2 -20 3 -11 9 -18 13 -15 13 8 16 -15 16 -97
-1 -54 3 -79 12 -83 6 -2 12 -16 12 -30 0 -23 10 -30 33 -26 5 1 5 -4 1 -11
-12 -19 -12 -108 -1 -115 6 -4 7 0 2 8 -6 11 -5 11 5 2 16 -14 19 -54 7 -70
-6 -8 -6 -13 1 -13 6 0 9 -11 6 -25 -3 -18 0 -25 11 -25 9 0 15 -9 15 -25 0
-14 4 -25 9 -25 13 0 19 -59 7 -64 -6 -2 -5 -5 3 -5 11 -1 11 -4 1 -16 -7 -8
-9 -15 -4 -15 5 0 8 -22 7 -50 -2 -40 1 -50 13 -50 12 0 15 -7 12 -25 -3 -14
-1 -25 4 -25 5 0 6 -6 2 -12 -10 -16 -13 -48 -3 -43 4 3 12 -2 19 -10 9 -11
10 -18 1 -28 -6 -8 -8 -17 -4 -21 11 -11 12 -36 1 -36 -6 0 -4 -7 3 -17 12
-14 12 -16 0 -8 -11 6 -12 5 -5 -6 12 -19 12 -52 -1 -61 -6 -5 -5 -8 3 -8 7 0
10 -4 7 -10 -3 -5 -1 -10 5 -10 7 0 9 -7 6 -16 -4 -10 -2 -13 6 -8 7 5 9 0 6
-14 -4 -12 -3 -20 2 -17 4 3 11 -2 14 -11 3 -9 11 -12 18 -8 10 6 10 5 1 -7
-16 -19 -13 -56 4 -56 8 0 12 6 9 14 -3 7 0 13 7 13 8 0 6 4 -3 10 -8 5 -10
10 -5 10 6 0 10 16 10 35 0 19 -4 35 -9 35 -5 0 -3 7 4 15 10 12 10 15 0 15
-9 0 -10 3 -1 13 8 10 7 17 -1 25 -9 9 -9 12 1 12 11 0 11 3 1 15 -10 12 -10
15 0 15 9 0 10 3 1 13 -8 10 -7 17 1 25 9 9 9 12 -1 12 -11 0 -11 3 -1 15 7 8
8 15 3 15 -16 0 -35 52 -24 63 6 6 5 16 -2 29 -10 15 -9 21 3 28 8 5 11 10 5
10 -5 0 -11 18 -12 40 -2 30 1 39 10 34 7 -5 6 -1 -2 10 -13 15 -13 19 0 27 8
5 10 9 4 9 -5 0 -11 18 -12 40 -2 23 1 39 5 36 5 -3 9 1 9 9 0 8 -3 14 -6 13
-25 -2 -30 8 -33 72 -2 42 1 70 7 70 6 0 3 5 -5 10 -9 6 -11 10 -3 10 7 0 11
6 9 13 -3 6 -7 25 -10 40 -4 15 -10 26 -14 23 -10 -6 -9 65 1 81 4 6 3 14 -3
18 -6 4 -8 11 -4 16 3 5 10 6 16 3 7 -5 9 2 6 20 -3 14 -2 26 1 26 8 0 5 80
-4 103 -4 9 -3 17 3 17 6 0 7 13 2 35 -5 24 -4 35 4 35 6 0 4 5 -4 10 -8 5
-10 10 -3 10 6 0 9 9 6 20 -3 12 0 20 6 20 7 0 9 5 6 10 -3 6 -2 10 2 10 5 0
8 32 7 70 -1 45 3 70 10 70 7 0 7 3 1 8 -13 9 -19 86 -6 78 5 -3 4 5 -2 19 -7
14 -15 25 -19 25 -5 0 -8 15 -8 34 0 18 -6 39 -14 45 -8 7 -13 20 -11 29 1 9
-3 23 -9 31 -8 11 -8 13 1 8 9 -6 11 3 8 33 -3 30 -1 39 8 33 9 -5 9 -3 0 8
-10 12 -10 18 -1 27 9 9 9 12 1 12 -7 0 -10 18 -8 50 2 36 0 49 -8 44 -7 -3
-3 2 7 10 11 9 14 16 8 16 -7 0 -12 7 -12 15 0 8 6 15 13 15 8 0 9 2 1 8 -7 4
-10 27 -9 54 2 34 0 46 -8 42 -7 -3 -3 2 7 10 11 9 15 16 9 16 -6 0 -10 21
-10 49 1 27 4 48 7 46 4 -2 7 2 7 10 0 8 -4 15 -9 15 -4 0 -6 10 -4 23 2 12
-2 28 -8 36 -8 11 -8 13 0 8 8 -4 11 3 10 22 0 16 -3 28 -6 26 -3 -1 -14 7
-25 18 -12 11 -14 17 -5 13 9 -5 8 -2 -2 7 -10 8 -18 22 -18 31 0 10 -8 16
-24 16 -13 0 -26 5 -28 12 -2 6 -18 11 -36 10 -19 0 -31 4 -29 11 1 7 -20 13
-57 15 -40 3 -56 0 -52 -7z"/>
</g>
</svg>
